<svg width="2000px" height="879px"
 viewBox="0.00 0.00 1232.61 541.99" xmlns="http://www.w3.org/2000/svg" xmlns:xlink="http://www.w3.org/1999/xlink">
<g id="graph0" class="graph" transform="scale(1.0 1.0) rotate(0) translate(4 537.99)">
<title>ContextMapGraph</title>
<polygon fill="white" stroke="transparent" points="-4,4 -4,-537.99 1228.61,-537.99 1228.61,4 -4,4"/>
<!-- GestionDeAlquileres -->
<g id="node1" class="node">
<title>GestionDeAlquileres</title>
<polygon fill="none" stroke="black" stroke-width="2" points="179.86,-496.95 177.19,-494.18 174.92,-491.4 173.08,-488.61 171.65,-485.83 170.67,-483.06 170.12,-480.33 170.02,-477.63 170.37,-474.99 171.18,-472.4 172.43,-469.88 174.13,-467.43 176.28,-465.07 178.88,-462.8 181.91,-460.62 185.36,-458.55 189.23,-456.59 193.51,-454.74 198.18,-453.01 203.23,-451.4 208.64,-449.91 214.39,-448.54 220.47,-447.31 226.85,-446.2 233.52,-445.21 240.45,-444.35 247.61,-443.62 254.99,-443.01 262.55,-442.52 270.28,-442.15 278.15,-441.9 286.12,-441.76 294.18,-441.73 302.3,-441.8 310.45,-441.98 318.6,-442.26 326.73,-442.63 334.82,-443.1 342.83,-443.65 350.74,-444.29 358.53,-445 366.18,-445.8 373.65,-446.66 380.94,-447.6 388.02,-448.61 394.87,-449.68 401.47,-450.81 407.81,-452 413.87,-453.25 419.63,-454.56 425.09,-455.92 430.22,-457.33 435.02,-458.79 439.48,-460.3 443.6,-461.87 447.35,-463.48 450.75,-465.13 453.77,-466.84 456.43,-468.58 458.71,-470.37 460.62,-472.21 462.15,-474.08 463.31,-476 464.09,-477.95 464.5,-479.94 464.55,-481.97 464.23,-484.02 463.55,-486.11 462.51,-488.22 461.13,-490.35 459.4,-492.5 457.34,-494.66 454.95,-496.83 452.23,-499.01 449.2,-501.18 445.87,-503.35 442.24,-505.5 438.32,-507.63 434.12,-509.74 429.66,-511.81 424.93,-513.83 419.96,-515.81 414.75,-517.72 409.3,-519.57 403.65,-521.35 397.78,-523.04 391.73,-524.65 385.49,-526.15 379.08,-527.55 372.51,-528.83 365.81,-529.99 358.97,-531.03 352.01,-531.93 344.96,-532.69 337.82,-533.3 330.61,-533.76 323.34,-534.06 316.04,-534.21 308.71,-534.19 301.38,-534.01 294.06,-533.67 286.78,-533.16 279.54,-532.48 272.38,-531.64 265.3,-530.63 258.33,-529.47 251.48,-528.15 244.78,-526.67 238.25,-525.05 231.91,-523.29 225.77,-521.39 219.86,-519.37 214.19,-517.23 208.79,-514.97 203.67,-512.62 198.85,-510.18 194.35,-507.65 190.18,-505.05 186.37,-502.4 182.92,-499.69 179.86,-496.95"/>
<text text-anchor="middle" x="321.11" y="-481.46" font-family="sans-serif" font-size="16.00">GestionDeAlquileres</text>
</g>
<!-- GestionDeClientes -->
<g id="node2" class="node">
<title>GestionDeClientes</title>
<polygon fill="none" stroke="black" stroke-width="2" points="185.82,-192.85 185.63,-189.99 185.83,-187.13 186.39,-184.31 187.34,-181.53 188.66,-178.8 190.36,-176.12 192.42,-173.53 194.85,-171.01 197.64,-168.58 200.78,-166.26 204.27,-164.04 208.09,-161.93 212.24,-159.95 216.7,-158.1 221.46,-156.38 226.5,-154.79 231.83,-153.34 237.41,-152.04 243.23,-150.89 249.29,-149.87 255.55,-149.01 262,-148.29 268.62,-147.72 275.4,-147.29 282.31,-147 289.34,-146.85 296.45,-146.84 303.64,-146.96 310.89,-147.2 318.16,-147.57 325.44,-148.05 332.71,-148.65 339.94,-149.35 347.12,-150.15 354.23,-151.05 361.23,-152.04 368.13,-153.12 374.89,-154.27 381.49,-155.5 387.92,-156.79 394.15,-158.15 400.18,-159.56 405.98,-161.03 411.54,-162.54 416.84,-164.1 421.87,-165.7 426.61,-167.34 431.06,-169.01 435.19,-170.71 439.01,-172.44 442.49,-174.2 445.64,-175.98 448.44,-177.78 450.89,-179.6 452.98,-181.44 454.7,-183.29 456.06,-185.17 457.05,-187.05 457.67,-188.95 457.92,-190.86 457.8,-192.78 457.31,-194.71 456.45,-196.65 455.23,-198.6 453.65,-200.55 451.72,-202.5 449.45,-204.45 446.83,-206.39 443.88,-208.34 440.61,-210.27 437.03,-212.19 433.14,-214.09 428.96,-215.97 424.51,-217.83 419.78,-219.65 414.79,-221.44 409.57,-223.18 404.12,-224.88 398.45,-226.52 392.58,-228.1 386.53,-229.61 380.32,-231.05 373.95,-232.41 367.44,-233.67 360.82,-234.85 354.1,-235.92 347.29,-236.88 340.41,-237.72 333.49,-238.45 326.53,-239.04 319.56,-239.51 312.59,-239.83 305.64,-240.01 298.74,-240.05 291.89,-239.93 285.11,-239.66 278.43,-239.23 271.86,-238.65 265.42,-237.91 259.12,-237.01 252.98,-235.95 247.02,-234.74 241.25,-233.37 235.69,-231.86 230.36,-230.2 225.26,-228.4 220.42,-226.46 215.85,-224.39 211.55,-222.21 207.55,-219.91 203.85,-217.51 200.47,-215.01 197.42,-212.42 194.7,-209.76 192.32,-207.04 190.29,-204.26 188.62,-201.45 187.32,-198.6 186.38,-195.73 185.82,-192.85"/>
<text text-anchor="middle" x="322.11" y="-188.78" font-family="sans-serif" font-size="16.00">GestionDeClientes</text>
</g>
<!-- GestionDeAlquileres&#45;&gt;GestionDeClientes -->
<g id="edge1" class="edge">
<title>GestionDeAlquileres&#45;&gt;GestionDeClientes</title>
<path fill="none" stroke="black" stroke-width="2" d="M170.94,-472.99C113.93,-460.52 54.32,-435.79 19.11,-387.54 -6.36,-352.64 -6.38,-325.22 19.11,-290.33 57.95,-237.16 126.35,-212.53 188.35,-201.39"/>
<text text-anchor="middle" x="94.61" y="-335.84" font-family="sans-serif" font-size="12.00"> &#160;&#160;&#160;&#160;&#160;&#160;&#160;&#160;&#160;&#160;&#160;&#160;&#160;&#160;&#160;&#160;&#160;&#160;&#160;&#160;&#160;&#160;&#160;&#160;&#160;&#160;&#160;&#160;&#160;&#160;&#160;&#160;&#160;&#160;&#160;&#160;&#160;&#160;&#160;</text>
<polygon fill="white" stroke="transparent" points="181.35,-192.39 181.35,-209.39 195.35,-209.39 195.35,-192.39 181.35,-192.39"/>
<text text-anchor="start" x="183.35" y="-197.79" font-family="sans-serif" font-size="12.00">D</text>
<polygon fill="white" stroke="transparent" points="163.94,-463.99 163.94,-480.99 177.94,-480.99 177.94,-463.99 163.94,-463.99"/>
<text text-anchor="start" x="165.94" y="-469.39" font-family="sans-serif" font-size="12.00">U</text>
</g>
<!-- GestionDeAlquileres&#45;&gt;GestionDeClientes -->
<g id="edge2" class="edge">
<title>GestionDeAlquileres&#45;&gt;GestionDeClientes</title>
<path fill="none" stroke="black" stroke-width="2" d="M249.54,-443.38C230.22,-428.48 211.73,-409.75 201.11,-387.54 182.46,-348.57 182.39,-329.27 201.11,-290.33 211.6,-268.52 229.67,-250.08 248.69,-235.35"/>
<text text-anchor="middle" x="243.11" y="-335.84" font-family="sans-serif" font-size="12.00">Shared Kernel</text>
</g>
<!-- GestionDeVehiculos -->
<g id="node4" class="node">
<title>GestionDeVehiculos</title>
<polygon fill="none" stroke="black" stroke-width="2" points="327.99,-362.5 322.81,-360.09 318.01,-357.63 313.6,-355.14 309.59,-352.61 306.02,-350.06 302.88,-347.5 300.21,-344.94 298,-342.38 296.28,-339.84 295.05,-337.32 294.31,-334.84 294.08,-332.4 294.35,-330 295.13,-327.66 296.41,-325.38 298.18,-323.17 300.45,-321.03 303.2,-318.97 306.42,-316.99 310.1,-315.09 314.23,-313.29 318.78,-311.57 323.74,-309.95 329.08,-308.43 334.8,-307 340.86,-305.67 347.24,-304.44 353.91,-303.31 360.85,-302.27 368.03,-301.34 375.43,-300.51 383,-299.77 390.74,-299.13 398.6,-298.58 406.56,-298.13 414.59,-297.77 422.67,-297.51 430.76,-297.33 438.83,-297.24 446.87,-297.24 454.85,-297.33 462.74,-297.5 470.52,-297.75 478.16,-298.09 485.65,-298.51 492.96,-299.01 500.09,-299.59 507,-300.25 513.69,-300.99 520.14,-301.8 526.34,-302.7 532.27,-303.67 537.93,-304.72 543.31,-305.85 548.4,-307.06 553.19,-308.34 557.67,-309.7 561.85,-311.13 565.72,-312.64 569.28,-314.22 572.52,-315.88 575.45,-317.6 578.06,-319.4 580.35,-321.26 582.33,-323.19 584,-325.18 585.36,-327.22 586.4,-329.33 587.13,-331.48 587.56,-333.69 587.69,-335.93 587.51,-338.21 587.03,-340.53 586.26,-342.87 585.18,-345.23 583.82,-347.6 582.16,-349.98 580.22,-352.35 577.98,-354.72 575.46,-357.07 572.66,-359.39 569.57,-361.67 566.21,-363.92 562.57,-366.11 558.66,-368.24 554.48,-370.3 550.03,-372.28 545.32,-374.18 540.35,-375.98 535.13,-377.68 529.67,-379.27 523.97,-380.73 518.04,-382.08 511.88,-383.29 505.52,-384.36 498.95,-385.29 492.2,-386.07 485.27,-386.7 478.18,-387.18 470.94,-387.49 463.58,-387.64 456.1,-387.63 448.53,-387.46 440.88,-387.12 433.19,-386.62 425.46,-385.96 417.73,-385.14 410.01,-384.17 402.34,-383.05 394.73,-381.78 387.21,-380.37 379.81,-378.82 372.55,-377.15 365.46,-375.35 358.58,-373.45 351.91,-371.43 345.49,-369.32 339.35,-367.12 333.51,-364.84 327.99,-362.5"/>
<text text-anchor="middle" x="450.11" y="-335.14" font-family="sans-serif" font-size="16.00">GestionDeVehiculos</text>
</g>
<!-- GestionDeAlquileres&#45;&gt;GestionDeVehiculos -->
<g id="edge3" class="edge">
<title>GestionDeAlquileres&#45;&gt;GestionDeVehiculos</title>
<path fill="none" stroke="black" stroke-width="2" d="M356.7,-444.44C373.33,-425.84 393.19,-403.61 410.32,-384.45"/>
<text text-anchor="middle" x="432.11" y="-408.94" font-family="sans-serif" font-size="12.00">Shared Kernel</text>
</g>
<!-- GestionDePagos -->
<g id="node5" class="node">
<title>GestionDePagos</title>
<polygon fill="none" stroke="black" stroke-width="2" points="625.14,-333.87 625.95,-331.03 627.11,-328.21 628.59,-325.44 630.4,-322.73 632.53,-320.08 634.97,-317.5 637.73,-315.01 640.78,-312.62 644.13,-310.33 647.76,-308.15 651.67,-306.09 655.84,-304.16 660.26,-302.36 664.91,-300.7 669.8,-299.18 674.89,-297.81 680.19,-296.59 685.67,-295.52 691.32,-294.61 697.12,-293.84 703.06,-293.23 709.13,-292.78 715.3,-292.47 721.56,-292.31 727.89,-292.29 734.27,-292.42 740.69,-292.69 747.14,-293.08 753.58,-293.61 760.01,-294.26 766.41,-295.02 772.76,-295.89 779.04,-296.87 785.24,-297.95 791.33,-299.12 797.31,-300.37 803.16,-301.7 808.85,-303.11 814.39,-304.58 819.74,-306.11 824.89,-307.7 829.84,-309.33 834.57,-311.01 839.06,-312.72 843.3,-314.48 847.29,-316.25 851,-318.06 854.44,-319.89 857.58,-321.73 860.43,-323.59 862.96,-325.46 865.19,-327.35 867.1,-329.24 868.68,-331.13 869.93,-333.04 870.85,-334.94 871.43,-336.84 871.68,-338.75 871.58,-340.65 871.15,-342.55 870.38,-344.44 869.27,-346.33 867.83,-348.22 866.07,-350.09 863.98,-351.96 861.57,-353.81 858.84,-355.65 855.81,-357.48 852.49,-359.28 848.88,-361.07 844.99,-362.83 840.83,-364.55 836.42,-366.25 831.76,-367.91 826.87,-369.53 821.76,-371.1 816.45,-372.62 810.95,-374.09 805.28,-375.49 799.45,-376.82 793.47,-378.08 787.37,-379.26 781.17,-380.35 774.87,-381.35 768.49,-382.25 762.06,-383.05 755.59,-383.73 749.1,-384.3 742.61,-384.75 736.13,-385.06 729.69,-385.25 723.29,-385.3 716.97,-385.21 710.73,-384.97 704.59,-384.59 698.58,-384.05 692.7,-383.37 686.98,-382.54 681.42,-381.55 676.05,-380.41 670.88,-379.13 665.92,-377.7 661.19,-376.12 656.7,-374.4 652.46,-372.55 648.49,-370.57 644.79,-368.46 641.37,-366.24 638.25,-363.91 635.43,-361.48 632.93,-358.96 630.74,-356.36 628.87,-353.68 627.33,-350.94 626.12,-348.16 625.25,-345.33 624.71,-342.48 624.52,-339.61 624.66,-336.74 625.14,-333.87"/>
<text text-anchor="middle" x="748.11" y="-335.14" font-family="sans-serif" font-size="16.00">GestionDePagos</text>
</g>
<!-- GestionDeAlquileres&#45;&gt;GestionDePagos -->
<g id="edge4" class="edge">
<title>GestionDeAlquileres&#45;&gt;GestionDePagos</title>
<path fill="none" stroke="black" stroke-width="2" d="M416.32,-453.63C473.97,-434.91 548.91,-410.27 615.11,-387.54 627.98,-383.12 641.52,-378.38 654.84,-373.66"/>
<text text-anchor="middle" x="600.11" y="-408.94" font-family="sans-serif" font-size="12.00">Shared Kernel</text>
</g>
<!-- GestiondeSeguridad -->
<g id="node3" class="node">
<title>GestiondeSeguridad</title>
<polygon fill="none" stroke="black" stroke-width="2" points="607.33,-79.15 600.19,-77.2 593.38,-75.18 586.92,-73.09 580.85,-70.94 575.19,-68.74 569.96,-66.5 565.19,-64.22 560.9,-61.91 557.1,-59.58 553.81,-57.24 551.04,-54.89 548.81,-52.55 547.12,-50.21 545.98,-47.89 545.4,-45.6 545.36,-43.33 545.88,-41.1 546.94,-38.9 548.53,-36.75 550.66,-34.65 553.31,-32.6 556.45,-30.61 560.08,-28.68 564.18,-26.81 568.72,-25.01 573.69,-23.28 579.06,-21.62 584.8,-20.04 590.9,-18.53 597.31,-17.1 604.02,-15.75 610.99,-14.49 618.19,-13.3 625.61,-12.2 633.2,-11.17 640.93,-10.24 648.78,-9.39 656.72,-8.62 664.72,-7.95 672.76,-7.36 680.8,-6.85 688.82,-6.44 696.81,-6.11 704.72,-5.88 712.55,-5.73 720.27,-5.68 727.86,-5.72 735.31,-5.85 742.6,-6.07 749.72,-6.39 756.65,-6.8 763.38,-7.3 769.89,-7.9 776.19,-8.6 782.26,-9.39 788.1,-10.28 793.69,-11.26 799.05,-12.34 804.15,-13.52 809,-14.79 813.59,-16.15 817.93,-17.6 822.01,-19.14 825.82,-20.77 829.38,-22.49 832.67,-24.29 835.7,-26.17 838.47,-28.13 840.97,-30.16 843.2,-32.25 845.16,-34.41 846.85,-36.63 848.27,-38.91 849.41,-41.22 850.27,-43.58 850.84,-45.98 851.13,-48.4 851.13,-50.84 850.83,-53.29 850.23,-55.74 849.33,-58.19 848.12,-60.63 846.59,-63.04 844.75,-65.43 842.58,-67.77 840.09,-70.07 837.27,-72.31 834.11,-74.49 830.62,-76.6 826.79,-78.62 822.63,-80.56 818.13,-82.39 813.3,-84.13 808.15,-85.75 802.66,-87.26 796.86,-88.64 790.75,-89.89 784.34,-91 777.64,-91.98 770.66,-92.81 763.42,-93.5 755.94,-94.04 748.23,-94.43 740.32,-94.66 732.22,-94.75 723.96,-94.68 715.56,-94.45 707.05,-94.08 698.46,-93.56 689.81,-92.89 681.14,-92.08 672.48,-91.13 663.86,-90.04 655.31,-88.83 646.86,-87.49 638.55,-86.03 630.41,-84.46 622.47,-82.79 614.77,-81.01 607.33,-79.15"/>
<text text-anchor="middle" x="710.11" y="-43.62" font-family="sans-serif" font-size="16.00">GestiondeSeguridad</text>
</g>
<!-- GestionDeClientes&#45;&gt;GestiondeSeguridad -->
<g id="edge5" class="edge">
<title>GestionDeClientes&#45;&gt;GestiondeSeguridad</title>
<path fill="none" stroke="black" stroke-width="2" d="M405.82,-160.69C468.53,-137.55 554.27,-105.92 618.75,-82.12"/>
<text text-anchor="middle" x="570.11" y="-116.23" font-family="sans-serif" font-size="12.00">Shared Kernel</text>
</g>
<!-- GestionDePagos&#45;&gt;GestionDeClientes -->
<g id="edge7" class="edge">
<title>GestionDePagos&#45;&gt;GestionDeClientes</title>
<path fill="none" stroke="black" stroke-width="2" d="M655.2,-304.35C641.76,-299.59 628.09,-294.8 615.11,-290.33 547.1,-266.94 469.84,-241.47 411.74,-222.54"/>
<text text-anchor="middle" x="601.11" y="-262.73" font-family="sans-serif" font-size="12.00">Shared Kernel</text>
</g>
<!-- PaymentGateway -->
<g id="node6" class="node">
<title>PaymentGateway</title>
<polygon fill="none" stroke="black" stroke-width="2" points="782.26,-221.05 776.74,-223.25 770.97,-225.35 764.99,-227.35 758.81,-229.24 752.46,-231.02 745.95,-232.66 739.32,-234.18 732.58,-235.56 725.76,-236.8 718.88,-237.88 711.96,-238.82 705.01,-239.59 698.08,-240.21 691.16,-240.66 684.29,-240.96 677.47,-241.08 670.73,-241.05 664.08,-240.85 657.54,-240.5 651.13,-239.98 644.85,-239.32 638.72,-238.5 632.74,-237.53 626.94,-236.43 621.33,-235.19 615.9,-233.83 610.67,-232.34 605.64,-230.74 600.83,-229.03 596.24,-227.23 591.87,-225.33 587.74,-223.35 583.84,-221.3 580.17,-219.19 576.76,-217.02 573.58,-214.8 570.66,-212.54 568,-210.25 565.59,-207.94 563.44,-205.62 561.56,-203.29 559.94,-200.96 558.59,-198.64 557.52,-196.33 556.72,-194.04 556.2,-191.78 555.96,-189.55 556.01,-187.36 556.34,-185.21 556.96,-183.11 557.87,-181.06 559.08,-179.06 560.59,-177.12 562.39,-175.24 564.48,-173.42 566.88,-171.66 569.58,-169.97 572.57,-168.34 575.86,-166.79 579.45,-165.3 583.33,-163.88 587.49,-162.53 591.94,-161.26 596.67,-160.05 601.66,-158.92 606.92,-157.86 612.43,-156.88 618.18,-155.96 624.17,-155.12 630.37,-154.36 636.77,-153.67 643.36,-153.06 650.12,-152.53 657.04,-152.07 664.09,-151.7 671.26,-151.41 678.51,-151.19 685.84,-151.07 693.22,-151.03 700.62,-151.07 708.03,-151.21 715.41,-151.44 722.74,-151.76 729.99,-152.18 737.14,-152.69 744.17,-153.3 751.04,-154.01 757.73,-154.82 764.22,-155.74 770.48,-156.75 776.49,-157.87 782.22,-159.09 787.66,-160.42 792.77,-161.85 797.55,-163.37 801.97,-165 806.01,-166.73 809.67,-168.55 812.91,-170.46 815.74,-172.46 818.15,-174.55 820.11,-176.71 821.64,-178.95 822.71,-181.26 823.33,-183.63 823.5,-186.06 823.22,-188.53 822.5,-191.04 821.32,-193.59 819.72,-196.16 817.68,-198.74 815.22,-201.33 812.36,-203.91 809.11,-206.48 805.48,-209.03 801.48,-211.54 797.14,-214.01 792.48,-216.42 787.51,-218.77 782.26,-221.05"/>
<text text-anchor="middle" x="682.11" y="-188.78" font-family="sans-serif" font-size="16.00">PaymentGateway</text>
</g>
<!-- GestionDePagos&#45;&gt;PaymentGateway -->
<g id="edge6" class="edge">
<title>GestionDePagos&#45;&gt;PaymentGateway</title>
<path fill="none" stroke="black" stroke-width="2" d="M727.22,-292.26C719.6,-275.58 710.96,-256.7 703.31,-239.95"/>
<text text-anchor="middle" x="791.61" y="-262.73" font-family="sans-serif" font-size="12.00"> &#160;&#160;&#160;&#160;&#160;&#160;&#160;&#160;&#160;&#160;&#160;&#160;&#160;&#160;&#160;&#160;&#160;&#160;&#160;&#160;&#160;&#160;&#160;&#160;&#160;&#160;&#160;&#160;&#160;&#160;&#160;&#160;&#160;&#160;&#160;&#160;&#160;&#160;&#160;</text>
<polygon fill="white" stroke="transparent" points="696.31,-230.95 696.31,-247.95 710.31,-247.95 710.31,-230.95 696.31,-230.95"/>
<text text-anchor="start" x="698.31" y="-236.35" font-family="sans-serif" font-size="12.00">D</text>
<polygon fill="white" stroke="transparent" points="720.22,-283.26 720.22,-300.26 734.22,-300.26 734.22,-283.26 720.22,-283.26"/>
<text text-anchor="start" x="722.22" y="-288.66" font-family="sans-serif" font-size="12.00">U</text>
</g>
<!-- ServicioDeGeocalizacion -->
<g id="node7" class="node">
<title>ServicioDeGeocalizacion</title>
<polygon fill="none" stroke="black" stroke-width="2" points="962.09,-152.61 972.27,-151.39 982.58,-150.29 992.99,-149.31 1003.44,-148.45 1013.91,-147.73 1024.35,-147.15 1034.72,-146.7 1044.98,-146.39 1055.1,-146.22 1065.05,-146.2 1074.79,-146.33 1084.29,-146.6 1093.52,-147.01 1102.45,-147.57 1111.07,-148.27 1119.34,-149.11 1127.25,-150.09 1134.79,-151.2 1141.92,-152.44 1148.66,-153.81 1154.97,-155.3 1160.86,-156.91 1166.31,-158.62 1171.33,-160.44 1175.92,-162.36 1180.06,-164.36 1183.77,-166.45 1187.04,-168.61 1189.89,-170.84 1192.31,-173.13 1194.32,-175.47 1195.92,-177.85 1197.12,-180.26 1197.93,-182.7 1198.36,-185.15 1198.41,-187.62 1198.11,-190.08 1197.45,-192.54 1196.45,-194.98 1195.12,-197.39 1193.47,-199.78 1191.5,-202.13 1189.23,-204.43 1186.66,-206.68 1183.79,-208.87 1180.65,-211 1177.22,-213.06 1173.52,-215.05 1169.55,-216.95 1165.31,-218.78 1160.82,-220.52 1156.06,-222.17 1151.05,-223.72 1145.79,-225.18 1140.27,-226.54 1134.51,-227.8 1128.51,-228.96 1122.26,-230.02 1115.78,-230.98 1109.06,-231.83 1102.12,-232.57 1094.95,-233.21 1087.57,-233.75 1079.97,-234.18 1072.18,-234.51 1064.2,-234.73 1056.05,-234.85 1047.73,-234.88 1039.26,-234.8 1030.65,-234.62 1021.94,-234.35 1013.13,-233.98 1004.24,-233.51 995.31,-232.96 986.35,-232.31 977.38,-231.57 968.45,-230.74 959.57,-229.82 950.78,-228.82 942.11,-227.74 933.58,-226.58 925.24,-225.33 917.1,-224.01 909.22,-222.61 901.62,-221.14 894.33,-219.6 887.39,-217.99 880.82,-216.31 874.67,-214.57 868.96,-212.76 863.72,-210.9 858.97,-208.98 854.75,-207.01 851.08,-205 847.98,-202.93 845.47,-200.83 843.56,-198.69 842.27,-196.52 841.62,-194.33 841.6,-192.11 842.23,-189.87 843.51,-187.63 845.44,-185.38 848.01,-183.13 851.22,-180.88 855.06,-178.65 859.51,-176.44 864.55,-174.26 870.17,-172.11 876.35,-169.99 883.06,-167.93 890.27,-165.92 897.96,-163.97 906.09,-162.09 914.62,-160.29 923.52,-158.56 932.76,-156.93 942.3,-155.38 952.09,-153.94 962.09,-152.61"/>
<text text-anchor="middle" x="1033.11" y="-188.78" font-family="sans-serif" font-size="16.00">ServicioDeGeocalizacion</text>
</g>
<!-- ServicioDeGeocalizacion&#45;&gt;GestiondeSeguridad -->
<g id="edge8" class="edge">
<title>ServicioDeGeocalizacion&#45;&gt;GestiondeSeguridad</title>
<path fill="none" stroke="black" stroke-width="2" d="M949.09,-154.34C903.2,-134 846.37,-108.81 799.65,-88.1"/>
<text text-anchor="middle" x="923.11" y="-116.23" font-family="sans-serif" font-size="12.00">Shared Kernel</text>
</g>
</g>
</svg>
